<mxfile host="Electron" modified="2023-11-27T13:04:50.518Z" agent="Mozilla/5.0 (Windows NT 10.0; Win64; x64) AppleWebKit/537.36 (KHTML, like Gecko) draw.io/22.1.2 Chrome/114.0.5735.289 Electron/25.9.4 Safari/537.36" etag="bqis0u5deqILzFcd-pLe" version="22.1.2" type="device">
  <diagram name="第 1 页" id="jt6VVJo7nu8GzwiU6wVw">
    <mxGraphModel dx="1219" dy="769" grid="0" gridSize="10" guides="1" tooltips="1" connect="1" arrows="1" fold="1" page="1" pageScale="1" pageWidth="1500" pageHeight="1800" math="0" shadow="0">
      <root>
        <mxCell id="0" />
        <mxCell id="1" parent="0" />
        <mxCell id="OvFxD7z9jxdbEy_i_qH0-2" value="用户id（雪花算法）&lt;br&gt;手机号码（创建账号时指定）&lt;br&gt;用户头像&lt;br&gt;用户密码（脱敏处理）&lt;br&gt;证件类型（选择性）&lt;br&gt;证件号码（选择性）&lt;br&gt;姓名（选择性）&lt;br&gt;权限等级（1为游客，2为实名用户）" style="rounded=0;whiteSpace=wrap;html=1;" parent="1" vertex="1">
          <mxGeometry x="152" y="298" width="280" height="120" as="geometry" />
        </mxCell>
        <mxCell id="OvFxD7z9jxdbEy_i_qH0-3" value="userDB" style="text;strokeColor=none;fillColor=none;align=left;verticalAlign=middle;spacingLeft=4;spacingRight=4;overflow=hidden;points=[[0,0.5],[1,0.5]];portConstraint=eastwest;rotatable=0;whiteSpace=wrap;html=1;" parent="1" vertex="1">
          <mxGeometry x="245" y="424" width="80" height="30" as="geometry" />
        </mxCell>
        <mxCell id="OvFxD7z9jxdbEy_i_qH0-4" value="orderDB" style="text;strokeColor=none;fillColor=none;align=left;verticalAlign=middle;spacingLeft=4;spacingRight=4;overflow=hidden;points=[[0,0.5],[1,0.5]];portConstraint=eastwest;rotatable=0;whiteSpace=wrap;html=1;" parent="1" vertex="1">
          <mxGeometry x="262.75" y="655" width="80" height="30" as="geometry" />
        </mxCell>
        <mxCell id="OvFxD7z9jxdbEy_i_qH0-5" value="订单号（雪花算法）&lt;br&gt;身份证号码&lt;br&gt;车次id&lt;br&gt;车座&lt;br&gt;支付单号id&lt;br&gt;下单时间" style="rounded=0;whiteSpace=wrap;html=1;" parent="1" vertex="1">
          <mxGeometry x="206.25" y="548" width="193" height="98" as="geometry" />
        </mxCell>
        <mxCell id="OvFxD7z9jxdbEy_i_qH0-8" value="payDB&lt;br&gt;" style="text;strokeColor=none;fillColor=none;align=left;verticalAlign=middle;spacingLeft=4;spacingRight=4;overflow=hidden;points=[[0,0.5],[1,0.5]];portConstraint=eastwest;rotatable=0;whiteSpace=wrap;html=1;" parent="1" vertex="1">
          <mxGeometry x="233" y="1287" width="80" height="30" as="geometry" />
        </mxCell>
        <mxCell id="OvFxD7z9jxdbEy_i_qH0-9" value="支付单号（雪花算法）&lt;br&gt;支付方式&lt;br&gt;支付状态&lt;br&gt;&amp;nbsp;支付时间" style="rounded=0;whiteSpace=wrap;html=1;" parent="1" vertex="1">
          <mxGeometry x="185" y="1183" width="165" height="100" as="geometry" />
        </mxCell>
        <mxCell id="OvFxD7z9jxdbEy_i_qH0-16" value="车次id（雪花算法）&lt;br&gt;途径（-xx-xx-xx）&lt;br&gt;车牌号&lt;br&gt;是否开启" style="rounded=0;whiteSpace=wrap;html=1;" parent="1" vertex="1">
          <mxGeometry x="17" y="932" width="120" height="79.5" as="geometry" />
        </mxCell>
        <mxCell id="-K4Pnvhbvs1OvobaiyWg-2" value="座位等级&lt;br&gt;座位号&lt;br&gt;金额" style="rounded=0;whiteSpace=wrap;html=1;" parent="1" vertex="1">
          <mxGeometry x="211" y="831" width="241" height="79" as="geometry" />
        </mxCell>
        <mxCell id="-K4Pnvhbvs1OvobaiyWg-4" value="seat_(car_id)_(car_num)" style="text;strokeColor=none;fillColor=none;align=left;verticalAlign=middle;spacingLeft=4;spacingRight=4;overflow=hidden;points=[[0,0.5],[1,0.5]];portConstraint=eastwest;rotatable=0;whiteSpace=wrap;html=1;" parent="1" vertex="1">
          <mxGeometry x="251" y="908.5" width="141" height="30" as="geometry" />
        </mxCell>
        <mxCell id="-K4Pnvhbvs1OvobaiyWg-5" value="car" style="text;strokeColor=none;fillColor=none;align=left;verticalAlign=middle;spacingLeft=4;spacingRight=4;overflow=hidden;points=[[0,0.5],[1,0.5]];portConstraint=eastwest;rotatable=0;whiteSpace=wrap;html=1;" parent="1" vertex="1">
          <mxGeometry x="37" y="1020" width="80" height="30" as="geometry" />
        </mxCell>
        <mxCell id="-K4Pnvhbvs1OvobaiyWg-6" value="" style="endArrow=classic;html=1;rounded=0;entryX=0;entryY=0.5;entryDx=0;entryDy=0;exitX=1;exitY=0.5;exitDx=0;exitDy=0;" parent="1" source="OvFxD7z9jxdbEy_i_qH0-16" target="-K4Pnvhbvs1OvobaiyWg-4" edge="1">
          <mxGeometry width="50" height="50" relative="1" as="geometry">
            <mxPoint x="287" y="843" as="sourcePoint" />
            <mxPoint x="337" y="793" as="targetPoint" />
          </mxGeometry>
        </mxCell>
        <mxCell id="-K4Pnvhbvs1OvobaiyWg-11" value="user" style="shape=cylinder3;whiteSpace=wrap;html=1;boundedLbl=1;backgroundOutline=1;size=15;" parent="1" vertex="1">
          <mxGeometry x="563" y="318" width="60" height="80" as="geometry" />
        </mxCell>
        <mxCell id="-K4Pnvhbvs1OvobaiyWg-16" value="" style="strokeWidth=2;html=1;shape=mxgraph.flowchart.annotation_2;align=left;labelPosition=right;pointerEvents=1;" parent="1" vertex="1">
          <mxGeometry x="623" y="282" width="103" height="149" as="geometry" />
        </mxCell>
        <mxCell id="-K4Pnvhbvs1OvobaiyWg-17" value="&lt;div style=&quot;text-align: left;&quot;&gt;&lt;span style=&quot;background-color: initial;&quot;&gt;创建账户&lt;/span&gt;&lt;/div&gt;&lt;div style=&quot;text-align: left;&quot;&gt;&lt;span style=&quot;background-color: initial;&quot;&gt;修改密码&lt;/span&gt;&lt;/div&gt;&lt;div style=&quot;text-align: left;&quot;&gt;&lt;span style=&quot;background-color: initial;&quot;&gt;实名制&lt;/span&gt;&lt;/div&gt;&lt;div style=&quot;text-align: left;&quot;&gt;修改头像&lt;/div&gt;&lt;div style=&quot;text-align: left;&quot;&gt;解除实名&lt;/div&gt;&lt;div style=&quot;text-align: left;&quot;&gt;查询信息&lt;/div&gt;&lt;div style=&quot;text-align: left;&quot;&gt;鉴权&lt;/div&gt;" style="text;html=1;strokeColor=none;fillColor=none;align=center;verticalAlign=middle;whiteSpace=wrap;rounded=0;" parent="1" vertex="1">
          <mxGeometry x="675" y="284" width="106" height="146" as="geometry" />
        </mxCell>
        <mxCell id="-K4Pnvhbvs1OvobaiyWg-19" value="order" style="shape=cylinder3;whiteSpace=wrap;html=1;boundedLbl=1;backgroundOutline=1;size=15;" parent="1" vertex="1">
          <mxGeometry x="566" y="558" width="60" height="80" as="geometry" />
        </mxCell>
        <mxCell id="-K4Pnvhbvs1OvobaiyWg-21" value="&lt;div style=&quot;text-align: left;&quot;&gt;创建订单&lt;/div&gt;&lt;div style=&quot;text-align: left;&quot;&gt;查询订单&lt;/div&gt;&lt;div style=&quot;text-align: left;&quot;&gt;支付订单&lt;/div&gt;&lt;div style=&quot;text-align: left;&quot;&gt;改签&lt;/div&gt;" style="text;html=1;strokeColor=none;fillColor=none;align=center;verticalAlign=middle;whiteSpace=wrap;rounded=0;" parent="1" vertex="1">
          <mxGeometry x="678" y="524" width="106" height="146" as="geometry" />
        </mxCell>
        <mxCell id="-K4Pnvhbvs1OvobaiyWg-24" value="" style="strokeWidth=2;html=1;shape=mxgraph.flowchart.annotation_2;align=left;labelPosition=right;pointerEvents=1;" parent="1" vertex="1">
          <mxGeometry x="707" y="720" width="69" height="470" as="geometry" />
        </mxCell>
        <mxCell id="-K4Pnvhbvs1OvobaiyWg-32" value="&lt;div style=&quot;text-align: left;&quot;&gt;&lt;br&gt;&lt;/div&gt;" style="text;html=1;strokeColor=none;fillColor=none;align=center;verticalAlign=middle;whiteSpace=wrap;rounded=0;" parent="1" vertex="1">
          <mxGeometry x="711" y="1062.75" width="106" height="146" as="geometry" />
        </mxCell>
        <mxCell id="-K4Pnvhbvs1OvobaiyWg-36" value="pay" style="shape=cylinder3;whiteSpace=wrap;html=1;boundedLbl=1;backgroundOutline=1;size=15;" parent="1" vertex="1">
          <mxGeometry x="559" y="1313" width="60" height="80" as="geometry" />
        </mxCell>
        <mxCell id="-K4Pnvhbvs1OvobaiyWg-37" value="" style="strokeWidth=2;html=1;shape=mxgraph.flowchart.annotation_2;align=left;labelPosition=right;pointerEvents=1;" parent="1" vertex="1">
          <mxGeometry x="619" y="1277" width="103" height="149" as="geometry" />
        </mxCell>
        <mxCell id="-K4Pnvhbvs1OvobaiyWg-38" value="&lt;div style=&quot;text-align: left;&quot;&gt;创建付单&lt;/div&gt;&lt;div style=&quot;text-align: left;&quot;&gt;支付&lt;/div&gt;&lt;div style=&quot;text-align: left;&quot;&gt;退款&lt;/div&gt;&lt;div style=&quot;text-align: left;&quot;&gt;查询&lt;/div&gt;&lt;div style=&quot;text-align: left;&quot;&gt;订单作废&lt;/div&gt;" style="text;html=1;strokeColor=none;fillColor=none;align=center;verticalAlign=middle;whiteSpace=wrap;rounded=0;" parent="1" vertex="1">
          <mxGeometry x="671" y="1279" width="106" height="146" as="geometry" />
        </mxCell>
        <mxCell id="-K4Pnvhbvs1OvobaiyWg-42" value="user" style="swimlane;horizontal=0;whiteSpace=wrap;html=1;" parent="1" vertex="1">
          <mxGeometry x="526" y="273" width="269" height="171" as="geometry" />
        </mxCell>
        <mxCell id="-K4Pnvhbvs1OvobaiyWg-43" value="order" style="swimlane;horizontal=0;whiteSpace=wrap;html=1;" parent="-K4Pnvhbvs1OvobaiyWg-42" vertex="1">
          <mxGeometry x="-7.5" y="226" width="271" height="165" as="geometry" />
        </mxCell>
        <mxCell id="-K4Pnvhbvs1OvobaiyWg-20" value="" style="strokeWidth=2;html=1;shape=mxgraph.flowchart.annotation_2;align=left;labelPosition=right;pointerEvents=1;" parent="-K4Pnvhbvs1OvobaiyWg-43" vertex="1">
          <mxGeometry x="113" width="103" height="149" as="geometry" />
        </mxCell>
        <mxCell id="-K4Pnvhbvs1OvobaiyWg-46" value="car" style="swimlane;horizontal=0;whiteSpace=wrap;html=1;" parent="1" vertex="1">
          <mxGeometry x="485" y="694" width="357" height="527" as="geometry" />
        </mxCell>
        <mxCell id="-K4Pnvhbvs1OvobaiyWg-23" value="car" style="shape=cylinder3;whiteSpace=wrap;html=1;boundedLbl=1;backgroundOutline=1;size=15;" parent="-K4Pnvhbvs1OvobaiyWg-46" vertex="1">
          <mxGeometry x="61" y="167" width="121" height="140" as="geometry" />
        </mxCell>
        <mxCell id="KYG8FHqesxUZUU_Dzbcc-4" value="seat_(car_id)_(car_num)" style="shape=cylinder3;whiteSpace=wrap;html=1;boundedLbl=1;backgroundOutline=1;size=15;" parent="-K4Pnvhbvs1OvobaiyWg-46" vertex="1">
          <mxGeometry x="61" y="363" width="128.5" height="136" as="geometry" />
        </mxCell>
        <mxCell id="-K4Pnvhbvs1OvobaiyWg-30" value="time_(car_id)_(car_num)" style="shape=cylinder3;whiteSpace=wrap;html=1;boundedLbl=1;backgroundOutline=1;size=15;" parent="-K4Pnvhbvs1OvobaiyWg-46" vertex="1">
          <mxGeometry x="57" y="7" width="136.5" height="136" as="geometry" />
        </mxCell>
        <mxCell id="-K4Pnvhbvs1OvobaiyWg-25" value="&lt;div style=&quot;text-align: left;&quot;&gt;创建车次&lt;/div&gt;&lt;div style=&quot;text-align: left;&quot;&gt;卖座&lt;/div&gt;&lt;div style=&quot;border-color: var(--border-color); text-align: left;&quot;&gt;查询&lt;/div&gt;&lt;div style=&quot;border-color: var(--border-color); text-align: left;&quot;&gt;增加座位&lt;/div&gt;&lt;div style=&quot;text-align: left;&quot;&gt;开启车次&lt;/div&gt;&lt;div style=&quot;text-align: left;&quot;&gt;查询&lt;/div&gt;&lt;div style=&quot;text-align: left;&quot;&gt;&lt;div style=&quot;border-color: var(--border-color);&quot;&gt;查询站点信息&lt;/div&gt;&lt;div style=&quot;border-color: var(--border-color);&quot;&gt;到站计时&lt;/div&gt;&lt;div style=&quot;border-color: var(--border-color);&quot;&gt;增加站点&lt;/div&gt;&lt;div style=&quot;border-color: var(--border-color);&quot;&gt;&lt;div style=&quot;border-color: var(--border-color);&quot;&gt;改座&lt;/div&gt;&lt;div style=&quot;border-color: var(--border-color);&quot;&gt;占座&lt;/div&gt;&lt;/div&gt;&lt;/div&gt;" style="text;html=1;strokeColor=none;fillColor=none;align=center;verticalAlign=middle;whiteSpace=wrap;rounded=0;" parent="-K4Pnvhbvs1OvobaiyWg-46" vertex="1">
          <mxGeometry x="248" y="183" width="106" height="146" as="geometry" />
        </mxCell>
        <mxCell id="XzX1OupyAh7tMJAUcPq4-1" value="" style="strokeWidth=2;html=1;shape=mxgraph.flowchart.annotation_2;align=left;labelPosition=right;pointerEvents=1;rotation=-180;" parent="-K4Pnvhbvs1OvobaiyWg-46" vertex="1">
          <mxGeometry x="198" y="26" width="50" height="470" as="geometry" />
        </mxCell>
        <mxCell id="-K4Pnvhbvs1OvobaiyWg-50" value="Buy Tickets" style="swimlane;horizontal=0;whiteSpace=wrap;html=1;startSize=23;" parent="1" vertex="1">
          <mxGeometry x="916" y="713" width="481" height="497" as="geometry">
            <mxRectangle x="930" y="19" width="32" height="96" as="alternateBounds" />
          </mxGeometry>
        </mxCell>
        <mxCell id="-K4Pnvhbvs1OvobaiyWg-51" value="order" style="shape=cube;whiteSpace=wrap;html=1;boundedLbl=1;backgroundOutline=1;darkOpacity=0.05;darkOpacity2=0.1;" parent="-K4Pnvhbvs1OvobaiyWg-50" vertex="1">
          <mxGeometry x="74" y="46" width="120" height="65" as="geometry" />
        </mxCell>
        <mxCell id="-K4Pnvhbvs1OvobaiyWg-53" value="car" style="shape=cube;whiteSpace=wrap;html=1;boundedLbl=1;backgroundOutline=1;darkOpacity=0.05;darkOpacity2=0.1;" parent="-K4Pnvhbvs1OvobaiyWg-50" vertex="1">
          <mxGeometry x="77" y="150" width="120" height="61" as="geometry" />
        </mxCell>
        <mxCell id="-K4Pnvhbvs1OvobaiyWg-54" value="pay" style="shape=cube;whiteSpace=wrap;html=1;boundedLbl=1;backgroundOutline=1;darkOpacity=0.05;darkOpacity2=0.1;" parent="-K4Pnvhbvs1OvobaiyWg-50" vertex="1">
          <mxGeometry x="80" y="243" width="120" height="62" as="geometry" />
        </mxCell>
        <mxCell id="-K4Pnvhbvs1OvobaiyWg-55" value="" style="strokeWidth=2;html=1;shape=mxgraph.flowchart.annotation_2;align=left;labelPosition=right;pointerEvents=1;rotation=-180;" parent="-K4Pnvhbvs1OvobaiyWg-50" vertex="1">
          <mxGeometry x="213" y="71" width="50" height="414" as="geometry" />
        </mxCell>
        <mxCell id="-K4Pnvhbvs1OvobaiyWg-56" value="" style="strokeWidth=2;html=1;shape=mxgraph.flowchart.annotation_2;align=left;labelPosition=right;pointerEvents=1;" parent="-K4Pnvhbvs1OvobaiyWg-50" vertex="1">
          <mxGeometry x="263" y="73" width="50" height="410" as="geometry" />
        </mxCell>
        <mxCell id="-K4Pnvhbvs1OvobaiyWg-59" value="购票&lt;br&gt;&lt;div style=&quot;&quot;&gt;&lt;span style=&quot;background-color: initial;&quot;&gt;查票&lt;/span&gt;&lt;/div&gt;&lt;div style=&quot;&quot;&gt;&lt;span style=&quot;background-color: initial;&quot;&gt;退票&lt;/span&gt;&lt;/div&gt;&lt;div style=&quot;&quot;&gt;&lt;span style=&quot;background-color: initial;&quot;&gt;改签&lt;/span&gt;&lt;/div&gt;&lt;div style=&quot;&quot;&gt;&lt;span style=&quot;background-color: initial;&quot;&gt;支付&lt;/span&gt;&lt;/div&gt;&lt;div style=&quot;&quot;&gt;&lt;span style=&quot;background-color: initial;&quot;&gt;退款&lt;/span&gt;&lt;/div&gt;&lt;div style=&quot;&quot;&gt;&lt;span style=&quot;background-color: initial;&quot;&gt;查询列车时间表&lt;/span&gt;&lt;/div&gt;&lt;div style=&quot;&quot;&gt;&lt;span style=&quot;background-color: initial;&quot;&gt;查询订单&lt;/span&gt;&lt;/div&gt;&lt;div style=&quot;&quot;&gt;&lt;span style=&quot;background-color: initial;&quot;&gt;增加车次&lt;/span&gt;&lt;/div&gt;&lt;div style=&quot;&quot;&gt;&lt;span style=&quot;background-color: initial;&quot;&gt;设置车座及其价格&lt;/span&gt;&lt;/div&gt;&lt;div style=&quot;&quot;&gt;&lt;span style=&quot;background-color: initial;&quot;&gt;记录车辆站点信息&lt;/span&gt;&lt;/div&gt;" style="text;html=1;strokeColor=none;fillColor=none;align=left;verticalAlign=middle;whiteSpace=wrap;rounded=0;" parent="-K4Pnvhbvs1OvobaiyWg-50" vertex="1">
          <mxGeometry x="296" y="77.5" width="185" height="402.5" as="geometry" />
        </mxCell>
        <mxCell id="bF9jsImcWr54eUI8fJr3-1" value="user" style="shape=cube;whiteSpace=wrap;html=1;boundedLbl=1;backgroundOutline=1;darkOpacity=0.05;darkOpacity2=0.1;" vertex="1" parent="-K4Pnvhbvs1OvobaiyWg-50">
          <mxGeometry x="80" y="330" width="120" height="65" as="geometry" />
        </mxCell>
        <mxCell id="bF9jsImcWr54eUI8fJr3-2" value="sms" style="shape=cube;whiteSpace=wrap;html=1;boundedLbl=1;backgroundOutline=1;darkOpacity=0.05;darkOpacity2=0.1;" vertex="1" parent="-K4Pnvhbvs1OvobaiyWg-50">
          <mxGeometry x="80" y="414" width="120" height="62" as="geometry" />
        </mxCell>
        <mxCell id="-K4Pnvhbvs1OvobaiyWg-60" value="通知日期&lt;br&gt;通知内容&lt;br&gt;是否成功通知" style="rounded=0;whiteSpace=wrap;html=1;" parent="1" vertex="1">
          <mxGeometry x="160" y="1371" width="206" height="98" as="geometry" />
        </mxCell>
        <mxCell id="-K4Pnvhbvs1OvobaiyWg-61" value="sms_info" style="text;strokeColor=none;fillColor=none;align=left;verticalAlign=middle;spacingLeft=4;spacingRight=4;overflow=hidden;points=[[0,0.5],[1,0.5]];portConstraint=eastwest;rotatable=0;whiteSpace=wrap;html=1;" parent="1" vertex="1">
          <mxGeometry x="219" y="1476" width="80" height="30" as="geometry" />
        </mxCell>
        <mxCell id="-K4Pnvhbvs1OvobaiyWg-63" value="SMS" style="swimlane;horizontal=0;whiteSpace=wrap;html=1;" parent="1" vertex="1">
          <mxGeometry x="482" y="1486" width="343" height="180" as="geometry" />
        </mxCell>
        <mxCell id="-K4Pnvhbvs1OvobaiyWg-64" value="sms_info" style="shape=cylinder3;whiteSpace=wrap;html=1;boundedLbl=1;backgroundOutline=1;size=15;" parent="-K4Pnvhbvs1OvobaiyWg-63" vertex="1">
          <mxGeometry x="51" y="51.5" width="60" height="80" as="geometry" />
        </mxCell>
        <mxCell id="-K4Pnvhbvs1OvobaiyWg-65" value="" style="strokeWidth=2;html=1;shape=mxgraph.flowchart.annotation_2;align=left;labelPosition=right;pointerEvents=1;" parent="-K4Pnvhbvs1OvobaiyWg-63" vertex="1">
          <mxGeometry x="111" y="15.5" width="103" height="149" as="geometry" />
        </mxCell>
        <mxCell id="-K4Pnvhbvs1OvobaiyWg-66" value="下单成功，短信通知&lt;br&gt;退款成功，短信通知&lt;br&gt;改签成功，短信通知" style="text;strokeColor=none;fillColor=none;align=left;verticalAlign=middle;spacingLeft=4;spacingRight=4;overflow=hidden;points=[[0,0.5],[1,0.5]];portConstraint=eastwest;rotatable=0;whiteSpace=wrap;html=1;" parent="-K4Pnvhbvs1OvobaiyWg-63" vertex="1">
          <mxGeometry x="171" y="19" width="162" height="138" as="geometry" />
        </mxCell>
        <mxCell id="KYG8FHqesxUZUU_Dzbcc-1" value="途径站&lt;br&gt;预计到达时间&lt;br&gt;实际到站时间&lt;br&gt;是否被占&lt;br style=&quot;border-color: var(--border-color);&quot;&gt;占用者身份证id" style="rounded=0;whiteSpace=wrap;html=1;" parent="1" vertex="1">
          <mxGeometry x="212" y="973" width="241" height="79" as="geometry" />
        </mxCell>
        <mxCell id="KYG8FHqesxUZUU_Dzbcc-2" value="time_(car_id)_(car_num)" style="text;strokeColor=none;fillColor=none;align=left;verticalAlign=middle;spacingLeft=4;spacingRight=4;overflow=hidden;points=[[0,0.5],[1,0.5]];portConstraint=eastwest;rotatable=0;whiteSpace=wrap;html=1;" parent="1" vertex="1">
          <mxGeometry x="260" y="1062" width="141" height="30" as="geometry" />
        </mxCell>
        <mxCell id="KYG8FHqesxUZUU_Dzbcc-3" value="" style="endArrow=classic;html=1;rounded=0;entryX=0;entryY=0.5;entryDx=0;entryDy=0;exitX=1;exitY=0.5;exitDx=0;exitDy=0;" parent="1" source="OvFxD7z9jxdbEy_i_qH0-16" target="KYG8FHqesxUZUU_Dzbcc-2" edge="1">
          <mxGeometry width="50" height="50" relative="1" as="geometry">
            <mxPoint x="149" y="1163" as="sourcePoint" />
            <mxPoint x="199" y="1113" as="targetPoint" />
          </mxGeometry>
        </mxCell>
        <mxCell id="bF9jsImcWr54eUI8fJr3-3" value="pay" style="swimlane;horizontal=0;whiteSpace=wrap;html=1;" vertex="1" parent="1">
          <mxGeometry x="489" y="1263" width="343" height="180" as="geometry" />
        </mxCell>
      </root>
    </mxGraphModel>
  </diagram>
</mxfile>
